<?xml version="1.0" standalone="no"?>
<!DOCTYPE svg PUBLIC "-//W3C//DTD SVG 20010904//EN"
 "http://www.w3.org/TR/2001/REC-SVG-20010904/DTD/svg10.dtd">
<svg version="1.0" xmlns="http://www.w3.org/2000/svg"
 width="1024.000000pt" height="1024.000000pt" viewBox="0 0 1024.000000 1024.000000"
 preserveAspectRatio="xMidYMid meet">

<g transform="translate(0.000000,1024.000000) scale(0.100000,-0.100000)"
fill="#000000" stroke="none">
<path d="M2934 8314 c-254 -42 -482 -162 -675 -354 -145 -144 -247 -309 -310
-503 -63 -192 -60 -63 -57 -2327 l3 -2065 33 -120 c126 -460 455 -785 921
-913 l96 -27 2130 -3 c2116 -2 2131 -2 2238 18 254 49 475 166 657 349 189
191 306 411 351 661 12 62 14 438 14 2135 0 2284 5 2108 -65 2316 -125 373
-418 663 -798 789 -193 63 -66 60 -2366 59 -1710 -1 -2106 -4 -2172 -15z
m1101 -629 c236 -69 419 -230 514 -453 79 -187 81 -408 4 -600 -28 -68 -107
-195 -141 -225 l-20 -19 34 -56 c19 -32 44 -76 56 -99 16 -31 28 -43 44 -43
29 0 52 -23 78 -80 12 -25 31 -60 44 -78 l23 -32 -20 -61 -21 -60 25 -47 c14
-26 34 -58 44 -71 l18 -23 65 16 c35 9 67 16 71 16 4 0 28 -32 52 -71 51 -78
50 -73 3 -177 l-28 -65 42 -66 c66 -104 62 -101 115 -85 84 25 93 22 141 -56
l44 -71 -38 -74 c-38 -73 -38 -74 -22 -108 9 -20 25 -38 35 -41 10 -3 41 -44
69 -90 l52 -83 -57 -23 c-99 -41 -154 -81 -256 -185 -55 -57 -104 -110 -110
-119 -10 -17 -32 17 -261 404 -258 438 -543 915 -575 964 -30 45 -37 61 -28
72 8 10 -5 39 -56 126 l-66 113 -112 1 c-133 0 -218 20 -332 75 -279 135 -455
411 -455 713 0 163 40 298 125 432 186 291 562 429 900 329z m1821 -263 c7 -9
40 -63 74 -120 l62 -103 72 8 c84 10 242 10 307 0 l47 -6 72 119 c49 82 79
122 94 126 57 14 393 -148 429 -207 8 -13 -2 -44 -41 -131 -29 -63 -52 -123
-52 -134 0 -11 16 -36 36 -55 51 -49 144 -174 179 -241 35 -67 26 -65 193 -39
95 14 116 15 132 4 48 -34 125 -412 93 -461 -10 -17 -45 -27 -213 -61 -82 -17
-85 -19 -88 -47 -6 -59 -44 -191 -79 -272 l-36 -83 33 -34 32 -33 -44 -7
c-118 -20 -217 -84 -354 -229 -73 -77 -114 -111 -156 -132 -53 -26 -58 -31
-58 -60 0 -28 -18 -51 -133 -168 l-134 -136 -80 0 c-61 0 -84 4 -94 16 -13 16
-78 226 -79 256 0 11 -11 20 -27 24 -99 21 -179 48 -256 83 -49 23 -93 41 -98
41 -5 0 -49 -37 -96 -82 -82 -76 -88 -80 -100 -62 -8 10 -48 73 -89 139 -42
66 -101 146 -132 178 -64 65 -65 59 11 149 44 53 45 45 -8 171 -20 49 -46 128
-58 177 l-21 88 -145 29 c-139 27 -146 30 -155 56 -24 67 36 422 75 449 8 5
43 6 79 3 36 -3 102 -8 147 -12 l81 -6 27 54 c32 64 80 130 152 214 29 33 53
64 53 70 0 5 -23 59 -50 119 -68 149 -68 153 26 215 42 28 110 67 152 87 43
19 95 44 117 54 44 21 82 18 101 -8z m-1876 -2279 c52 -86 120 -196 152 -244
l56 -87 -44 -53 c-163 -197 -175 -470 -30 -673 140 -196 362 -283 586 -230 65
15 65 15 80 -8 8 -12 33 -45 55 -73 92 -115 174 -228 258 -355 91 -138 154
-213 169 -204 15 10 8 -25 -9 -42 -53 -52 -414 -183 -468 -170 -21 5 -38 32
-97 151 l-71 145 -71 0 c-90 0 -242 23 -324 48 l-63 20 -56 -71 c-32 -40 -72
-91 -91 -115 -51 -65 -68 -69 -133 -37 -159 80 -379 261 -379 311 0 12 31 69
68 126 37 57 75 114 83 127 14 23 13 27 -28 88 -52 78 -102 183 -139 290 l-28
80 -160 17 c-89 9 -164 20 -169 25 -33 33 -34 353 -1 476 l19 70 172 5 172 5
49 100 c42 85 76 138 170 266 16 21 0 53 -101 213 -32 49 -57 93 -57 97 0 10
98 95 136 118 l29 18 85 -139 c47 -76 128 -209 180 -295z m3445 257 c24 -10
86 -65 156 -136 130 -133 143 -158 142 -268 -2 -124 21 -97 -813 -932 -445
-446 -771 -765 -795 -777 -61 -33 -193 -31 -256 3 -61 33 -710 697 -739 756
-50 102 -49 224 2 301 13 19 70 75 128 124 122 104 172 125 276 116 100 -8
137 -32 306 -203 l154 -156 565 569 c310 314 577 578 592 588 70 45 200 52
282 15z"/>
<path d="M3684 7281 c-69 -25 -119 -60 -165 -116 -55 -67 -74 -124 -74 -225 0
-71 4 -94 26 -140 39 -82 90 -135 167 -172 63 -31 73 -33 172 -33 97 0 110 2
164 30 68 35 128 98 165 175 22 47 26 69 26 145 0 76 -4 99 -26 145 -34 73
-101 140 -174 175 -80 37 -205 45 -281 16z"/>
<path d="M6148 6720 c-205 -35 -373 -184 -423 -375 -19 -73 -19 -193 -1 -261
51 -191 222 -350 416 -384 257 -46 519 123 585 377 48 183 -7 377 -143 505
-75 69 -157 112 -258 133 -75 16 -105 17 -176 5z"/>
</g>
</svg>
